<svg width="24" height="24" viewBox="0 0 24 24" fill="none" xmlns="http://www.w3.org/2000/svg">
<path d="M12 15.75C13.1833 15.75 14.1875 15.3375 15.0125 14.5125C15.8375 13.6875 16.25 12.6833 16.25 11.5C16.25 10.3167 15.8375 9.31249 15.0125 8.48749C14.1875 7.66249 13.1833 7.24999 12 7.24999C10.8167 7.24999 9.8125 7.66249 8.9875 8.48749C8.1625 9.31249 7.75 10.3167 7.75 11.5C7.75 12.6833 8.1625 13.6875 8.9875 14.5125C9.8125 15.3375 10.8167 15.75 12 15.75ZM12 14.075C11.2833 14.075 10.675 13.825 10.175 13.325C9.675 12.825 9.425 12.2167 9.425 11.5C9.425 10.7833 9.675 10.175 10.175 9.67499C10.675 9.17499 11.2833 8.92499 12 8.92499C12.7167 8.92499 13.325 9.17499 13.825 9.67499C14.325 10.175 14.575 10.7833 14.575 11.5C14.575 12.2167 14.325 12.825 13.825 13.325C13.325 13.825 12.7167 14.075 12 14.075ZM12 19.325C9.65 19.325 7.50833 18.6792 5.575 17.3875C3.64167 16.0958 2.13333 14.4083 1.05 12.325C1 12.2083 0.958333 12.0792 0.925 11.9375C0.891667 11.7958 0.875 11.65 0.875 11.5C0.875 11.35 0.891667 11.2 0.925 11.05C0.958333 10.9 1 10.775 1.05 10.675C2.13333 8.59165 3.64167 6.90415 5.575 5.61249C7.50833 4.32082 9.65 3.67499 12 3.67499C14.35 3.67499 16.4917 4.32082 18.425 5.61249C20.3583 6.90415 21.8667 8.59165 22.95 10.675C23 10.775 23.0417 10.9 23.075 11.05C23.1083 11.2 23.125 11.35 23.125 11.5C23.125 11.65 23.1083 11.7958 23.075 11.9375C23.0417 12.0792 23 12.2083 22.95 12.325C21.8667 14.4083 20.3583 16.0958 18.425 17.3875C16.4917 18.6792 14.35 19.325 12 19.325ZM12 17.5C14.0167 17.5 15.8667 16.9542 17.55 15.8625C19.2333 14.7708 20.5167 13.3167 21.4 11.5C20.5167 9.68332 19.2333 8.22915 17.55 7.13749C15.8667 6.04582 14.0167 5.49999 12 5.49999C9.98333 5.49999 8.13333 6.04582 6.45 7.13749C4.76667 8.22915 3.475 9.68332 2.575 11.5C3.475 13.3167 4.76667 14.7708 6.45 15.8625C8.13333 16.9542 9.98333 17.5 12 17.5Z" fill="#1A1A1A"/>
</svg>
