<svg width="24" height="24" viewBox="0 0 24 24" fill="none" xmlns="http://www.w3.org/2000/svg">
<path d="M15.8 13.35L14.225 11.8C14.6083 10.8667 14.45 10.1125 13.75 9.53751C13.05 8.96251 12.3417 8.84168 11.625 9.17501L10.15 7.70001C10.4167 7.55001 10.7125 7.43751 11.0375 7.36251C11.3625 7.28751 11.6833 7.25001 12 7.25001C13.1833 7.25001 14.1875 7.66251 15.0125 8.48751C15.8375 9.31251 16.25 10.3167 16.25 11.5C16.25 11.8167 16.2125 12.1458 16.1375 12.4875C16.0625 12.8292 15.95 13.1167 15.8 13.35ZM19.3 16.875L18.075 15.625C18.8417 15.0417 19.5125 14.3917 20.0875 13.675C20.6625 12.9583 21.1 12.2333 21.4 11.5C20.55 9.66668 19.3 8.20835 17.65 7.12501C16 6.04168 14.2 5.50001 12.25 5.50001C11.55 5.50001 10.8542 5.56251 10.1625 5.68751C9.47083 5.81251 8.94167 5.95835 8.575 6.12501L7.15 4.67501C7.73333 4.40835 8.49167 4.17501 9.425 3.97501C10.3583 3.77501 11.2583 3.67501 12.125 3.67501C14.3917 3.67501 16.5 4.29585 18.45 5.53751C20.4 6.77918 21.9083 8.49168 22.975 10.675C23.025 10.775 23.0625 10.9 23.0875 11.05C23.1125 11.2 23.125 11.35 23.125 11.5C23.125 11.65 23.1125 11.8042 23.0875 11.9625C23.0625 12.1208 23.025 12.25 22.975 12.35C22.525 13.25 21.9875 14.0833 21.3625 14.85C20.7375 15.6167 20.05 16.2917 19.3 16.875ZM19.675 21.925L16.275 18.575C15.6917 18.8083 15.0292 18.9917 14.2875 19.125C13.5458 19.2583 12.7833 19.325 12 19.325C9.66667 19.325 7.52083 18.7 5.5625 17.45C3.60417 16.2 2.09167 14.4917 1.025 12.325C0.975 12.2083 0.9375 12.0792 0.9125 11.9375C0.8875 11.7958 0.875 11.65 0.875 11.5C0.875 11.35 0.891667 11.1958 0.925 11.0375C0.958333 10.8792 0.991667 10.75 1.025 10.65C1.375 9.91668 1.81667 9.20418 2.35 8.51251C2.88333 7.82085 3.5 7.15001 4.2 6.50001L1.7 4.00001C1.53333 3.83335 1.45 3.63751 1.45 3.41251C1.45 3.18751 1.53333 3.00001 1.7 2.85001C1.86667 2.66668 2.0625 2.57501 2.2875 2.57501C2.5125 2.57501 2.70833 2.66668 2.875 2.85001L20.825 20.775C20.975 20.925 21.0458 21.1083 21.0375 21.325C21.0292 21.5417 20.9583 21.7333 20.825 21.9C20.675 22.0833 20.4833 22.175 20.25 22.175C20.0167 22.175 19.825 22.0917 19.675 21.925ZM5.475 7.77501C4.875 8.24168 4.30833 8.82085 3.775 9.51251C3.24167 10.2042 2.84167 10.8667 2.575 11.5C3.44167 13.35 4.72083 14.8125 6.4125 15.8875C8.10417 16.9625 10.0333 17.5 12.2 17.5C12.7 17.5 13.2 17.4708 13.7 17.4125C14.2 17.3542 14.5833 17.2583 14.85 17.125L13.25 15.525C13.0833 15.6083 12.8833 15.6667 12.65 15.7C12.4167 15.7333 12.2 15.75 12 15.75C10.8333 15.75 9.83333 15.3417 9 14.525C8.16667 13.7083 7.75 12.7 7.75 11.5C7.75 11.2833 7.76667 11.0667 7.8 10.85C7.83333 10.6333 7.88333 10.4333 7.95 10.25L5.475 7.77501Z" fill="#1A1A1A"/>
</svg>
