<svg width="18" height="18" viewBox="0 0 18 18" fill="none" xmlns="http://www.w3.org/2000/svg">
<path d="M12.0375 11.9813C11.9125 11.8563 11.85 11.7031 11.85 11.5219C11.85 11.3406 11.9125 11.1875 12.0375 11.0625L13.4625 9.63745H7.61255C7.43755 9.63745 7.28755 9.57495 7.16255 9.44995C7.03755 9.32495 6.97505 9.17495 6.97505 8.99995C6.97505 8.81245 7.03755 8.65933 7.16255 8.54058C7.28755 8.42183 7.43755 8.36245 7.61255 8.36245H13.425L11.9813 6.9187C11.8688 6.8062 11.8125 6.66245 11.8125 6.48745C11.8125 6.31245 11.875 6.1562 12 6.0187C12.125 5.8937 12.2782 5.8312 12.4594 5.8312C12.6407 5.8312 12.7938 5.8937 12.9188 6.0187L15.4688 8.5687C15.5313 8.6437 15.5782 8.7187 15.6094 8.7937C15.6407 8.8687 15.6563 8.9437 15.6563 9.0187C15.6563 9.1062 15.6407 9.18433 15.6094 9.25308C15.5782 9.32183 15.5313 9.3937 15.4688 9.4687L12.9375 12C12.825 12.1125 12.6813 12.1688 12.5063 12.1688C12.3313 12.1688 12.175 12.1063 12.0375 11.9813ZM3.37505 15.8625C3.02505 15.8625 2.72192 15.7344 2.46567 15.4781C2.20942 15.2219 2.0813 14.925 2.0813 14.5875V3.41245C2.0813 3.06245 2.20942 2.76245 2.46567 2.51245C2.72192 2.26245 3.02505 2.13745 3.37505 2.13745H8.21255C8.40005 2.13745 8.55317 2.19995 8.67192 2.32495C8.79067 2.44995 8.85005 2.59995 8.85005 2.77495C8.85005 2.96245 8.79067 3.11558 8.67192 3.23433C8.55317 3.35308 8.40005 3.41245 8.21255 3.41245H3.37505V14.5875H8.21255C8.40005 14.5875 8.55317 14.65 8.67192 14.775C8.79067 14.9 8.85005 15.05 8.85005 15.225C8.85005 15.4125 8.79067 15.5656 8.67192 15.6844C8.55317 15.8031 8.40005 15.8625 8.21255 15.8625H3.37505Z" fill="#133224"/>
</svg>
